# xmcd CD database file
#
# Track frame offsets:
#	150
#	18560
#	35485
#	52191
#	70985
#	86280
#	102229
#	123053
#	139602
#	156533
#	176863
#	192818
#	210730
#	228744
#	249852
#	266099
#	285628
#	300020
#	321351
#	340976
#
# Disc length: 4755 seconds
#
# Revision: 0
# Processed by: cddbd v1.5PL3 Copyright (c) Steve Scherf et al.
# Submitted via: freeDB plugin v1.0
#
DISCID=21129114
DTITLE=アーティスト情報なし - 再生リスト1
DYEAR=1900
DGENRE=Misc
TTITLE0=野ばらのエチュード
TTITLE1=裸足の季節
TTITLE2=青い珊瑚礁
TTITLE3=風は秋色
TTITLE4=チェリーブラッサム
TTITLE5=白いパラソル
TTITLE6=風立ちぬ
TTITLE7=赤いスイートピー
TTITLE8=渚のバルコニー
TTITLE9=小さなラブソング
TTITLE10=秘密の花園
TTITLE11=天国のキッス
TTITLE12=ガラスの林檎
TTITLE13=SWEET MEMORIES
TTITLE14=制服
TTITLE15=未来の花嫁
TTITLE16=RocK,n,rool　Good-bye
TTITLE17=ハートをＲｏｃｋ
TTITLE18=セイシェルの夕陽
TTITLE19=WITH YOU
EXTD=
EXTT0=
EXTT1=
EXTT2=
EXTT3=
EXTT4=
EXTT5=
EXTT6=
EXTT7=
EXTT8=
EXTT9=
EXTT10=
EXTT11=
EXTT12=
EXTT13=
EXTT14=
EXTT15=
EXTT16=
EXTT17=
EXTT18=
EXTT19=
PLAYORDER=
